<?xml version="1.0" standalone="no"?><svg xmlns="http://www.w3.org/2000/svg" viewBox="0 0 1440 320"><path fill="#87a5ff" fill-opacity="1" d="M0,64L0,192L40,192L40,192L80,192L80,32L120,32L120,128L160,128L160,32L200,32L200,64L240,64L240,256L280,256L280,224L320,224L320,64L360,64L360,256L400,256L400,256L440,256L440,160L480,160L480,192L520,192L520,128L560,128L560,224L600,224L600,32L640,32L640,64L680,64L680,192L720,192L720,224L760,224L760,96L800,96L800,192L840,192L840,320L880,320L880,224L920,224L920,288L960,288L960,32L1000,32L1000,96L1040,96L1040,320L1080,320L1080,96L1120,96L1120,288L1160,288L1160,32L1200,32L1200,160L1240,160L1240,192L1280,192L1280,224L1320,224L1320,64L1360,64L1360,128L1400,128L1400,256L1440,256L1440,320L1400,320L1400,320L1360,320L1360,320L1320,320L1320,320L1280,320L1280,320L1240,320L1240,320L1200,320L1200,320L1160,320L1160,320L1120,320L1120,320L1080,320L1080,320L1040,320L1040,320L1000,320L1000,320L960,320L960,320L920,320L920,320L880,320L880,320L840,320L840,320L800,320L800,320L760,320L760,320L720,320L720,320L680,320L680,320L640,320L640,320L600,320L600,320L560,320L560,320L520,320L520,320L480,320L480,320L440,320L440,320L400,320L400,320L360,320L360,320L320,320L320,320L280,320L280,320L240,320L240,320L200,320L200,320L160,320L160,320L120,320L120,320L80,320L80,320L40,320L40,320L0,320L0,320Z"></path></svg>