<svg width="93" height="27" viewBox="0 0 93 27" fill="none" xmlns="http://www.w3.org/2000/svg">
<path d="M8.24622 22.625C13.5194 22.625 0 0.950236 0 8.37528C0 15.8003 24.6545 10.1445 17.7944 20.9445C12.5212 20.9445 8.24649 14.9253 8.24649 7.50025C8.24649 0.0752118 2.97306 22.625 8.24622 22.625Z" fill="#1E1E1E"/>
<path d="M30.8476 7.364C32.1796 7.364 33.3436 7.628 34.3396 8.156C35.3356 8.684 36.1036 9.428 36.6436 10.388C37.1956 11.336 37.4716 12.434 37.4716 13.682C37.4716 14.918 37.1956 16.016 36.6436 16.976C36.1036 17.936 35.3296 18.68 34.3216 19.208C33.3256 19.736 32.1676 20 30.8476 20H26.1136V7.364H30.8476ZM30.6496 17.336C31.8136 17.336 32.7196 17.018 33.3676 16.382C34.0156 15.746 34.3396 14.846 34.3396 13.682C34.3396 12.518 34.0156 11.612 33.3676 10.964C32.7196 10.316 31.8136 9.992 30.6496 9.992H29.1916V17.336H30.6496ZM40.7397 8.912C40.1997 8.912 39.7557 8.756 39.4077 8.444C39.0717 8.12 38.9037 7.724 38.9037 7.256C38.9037 6.776 39.0717 6.38 39.4077 6.068C39.7557 5.744 40.1997 5.582 40.7397 5.582C41.2677 5.582 41.6997 5.744 42.0357 6.068C42.3837 6.38 42.5577 6.776 42.5577 7.256C42.5577 7.724 42.3837 8.12 42.0357 8.444C41.6997 8.756 41.2677 8.912 40.7397 8.912ZM42.2697 9.956V20H39.1917V9.956H42.2697ZM53.5903 7.364V9.83H50.2423V20H47.1643V9.83H43.8163V7.364H53.5903ZM54.523 14.96C54.523 13.928 54.715 13.022 55.099 12.242C55.495 11.462 56.029 10.862 56.701 10.442C57.373 10.022 58.123 9.812 58.951 9.812C59.659 9.812 60.277 9.956 60.805 10.244C61.345 10.532 61.759 10.91 62.047 11.378V9.956H65.125V20H62.047V18.578C61.747 19.046 61.327 19.424 60.787 19.712C60.259 20 59.641 20.144 58.933 20.144C58.117 20.144 57.373 19.934 56.701 19.514C56.029 19.082 55.495 18.476 55.099 17.696C54.715 16.904 54.523 15.992 54.523 14.96ZM62.047 14.978C62.047 14.21 61.831 13.604 61.399 13.16C60.979 12.716 60.463 12.494 59.851 12.494C59.239 12.494 58.717 12.716 58.285 13.16C57.865 13.592 57.655 14.192 57.655 14.96C57.655 15.728 57.865 16.34 58.285 16.796C58.717 17.24 59.239 17.462 59.851 17.462C60.463 17.462 60.979 17.24 61.399 16.796C61.831 16.352 62.047 15.746 62.047 14.978ZM70.4298 6.68V20H67.3518V6.68H70.4298ZM78.7984 20L75.7384 15.788V20H72.6604V6.68H75.7384V14.042L78.7804 9.956H82.5784L78.4024 14.996L82.6144 20H78.7984ZM87.8734 20.144C86.9974 20.144 86.2174 19.994 85.5334 19.694C84.8494 19.394 84.3094 18.986 83.9134 18.47C83.5174 17.942 83.2954 17.354 83.2474 16.706H86.2894C86.3254 17.054 86.4874 17.336 86.7754 17.552C87.0634 17.768 87.4174 17.876 87.8374 17.876C88.2214 17.876 88.5154 17.804 88.7194 17.66C88.9354 17.504 89.0434 17.306 89.0434 17.066C89.0434 16.778 88.8934 16.568 88.5934 16.436C88.2934 16.292 87.8074 16.136 87.1354 15.968C86.4154 15.8 85.8154 15.626 85.3354 15.446C84.8554 15.254 84.4414 14.96 84.0934 14.564C83.7454 14.156 83.5714 13.61 83.5714 12.926C83.5714 12.35 83.7274 11.828 84.0394 11.36C84.3634 10.88 84.8314 10.502 85.4434 10.226C86.0674 9.95 86.8054 9.812 87.6574 9.812C88.9174 9.812 89.9074 10.124 90.6274 10.748C91.3594 11.372 91.7794 12.2 91.8874 13.232H89.0434C88.9954 12.884 88.8394 12.608 88.5754 12.404C88.3234 12.2 87.9874 12.098 87.5674 12.098C87.2074 12.098 86.9314 12.17 86.7394 12.314C86.5474 12.446 86.4514 12.632 86.4514 12.872C86.4514 13.16 86.6014 13.376 86.9014 13.52C87.2134 13.664 87.6934 13.808 88.3414 13.952C89.0854 14.144 89.6914 14.336 90.1594 14.528C90.6274 14.708 91.0354 15.008 91.3834 15.428C91.7434 15.836 91.9294 16.388 91.9414 17.084C91.9414 17.672 91.7734 18.2 91.4374 18.668C91.1134 19.124 90.6394 19.484 90.0154 19.748C89.4034 20.012 88.6894 20.144 87.8734 20.144Z" fill="#1E1E1E"/>
</svg>
